<?xml version="1.0" encoding="UTF-8"?>
<svg version="1.1" xmlns="http://www.w3.org/2000/svg" width="1013" height="1327">
<path d="M0 0 C2.98877124 1.18990686 4.64544434 2.98671062 6.90551758 5.27346802 C7.36142273 5.73054138 7.81732788 6.18761475 8.28704834 6.65853882 C9.79227946 8.17095428 11.28670332 9.69361025 12.78149414 11.21633911 C13.83205113 12.27504009 14.88335301 13.33300238 15.93536377 14.39025879 C18.70723085 17.17925068 21.47042628 19.97667094 24.23144531 22.77639771 C28.63369611 27.23776898 33.04843772 31.68676628 37.46411896 36.1348381 C38.99558657 37.68010793 40.52307281 39.22922484 42.04998779 40.7789917 C46.61104088 45.39460662 51.22577754 49.85694988 56.15655518 54.07653809 C60.38892166 57.831557 64.31635452 61.90964643 68.29711914 65.92727661 C69.25271284 66.88729036 70.20861098 67.84700114 71.16479492 68.806427 C74.67762506 72.33248135 78.18492487 75.86401951 81.69238281 79.39541626 C84.66877431 82.3916887 87.64731071 85.38579892 90.62860107 88.37719727 C92.00865047 89.76363001 93.38559658 91.15314959 94.76245117 92.54275513 C98.43294931 96.22744244 102.09454134 99.86141209 106.04907227 103.24172974 C111.1557186 107.62816703 115.85016924 112.43148326 120.58882141 117.20631409 C122.303065 118.93350337 124.02057216 120.65738981 125.7388916 122.38052368 C130.00298391 126.65787468 134.26156975 130.9406942 138.52032471 135.22335815 C142.13087616 138.85375109 145.74354556 142.48201198 149.35896301 146.1075592 C151.03815549 147.79315951 152.7142699 149.48177802 154.39025879 151.17056274 C160.61831407 157.44001503 160.61831407 157.44001503 167.17211914 163.36477661 C172.24443441 167.70142502 176.89144539 172.47307454 181.58882141 177.20631409 C183.303065 178.93350337 185.02057216 180.65738981 186.7388916 182.38052368 C191.00298391 186.65787468 195.26156975 190.9406942 199.52032471 195.22335815 C203.13087616 198.85375109 206.74354556 202.48201198 210.35896301 206.1075592 C212.03815549 207.79315951 213.7142699 209.48177802 215.39025879 211.17056274 C221.61831407 217.44001503 221.61831407 217.44001503 228.17211914 223.36477661 C233.24443441 227.70142502 237.89144539 232.47307454 242.58882141 237.20631409 C244.303065 238.93350337 246.02057216 240.65738981 247.7388916 242.38052368 C252.00298391 246.65787468 256.26156975 250.9406942 260.52032471 255.22335815 C264.13087616 258.85375109 267.74354556 262.48201198 271.35896301 266.1075592 C273.03815549 267.79315951 274.7142699 269.48177802 276.39025879 271.17056274 C282.61831407 277.44001503 282.61831407 277.44001503 289.17211914 283.36477661 C294.24443441 287.70142502 298.89144539 292.47307454 303.58882141 297.20631409 C305.303065 298.93350337 307.02057216 300.65738981 308.7388916 302.38052368 C313.00298391 306.65787468 317.26156975 310.9406942 321.52032471 315.22335815 C325.13087616 318.85375109 328.74354556 322.48201198 332.35896301 326.1075592 C334.03815549 327.79315951 335.7142699 329.48177802 337.39025879 331.17056274 C342.20979748 336.01311423 347.06277366 340.74819783 352.25942993 345.19030762 C358.77562111 350.89492499 364.80173496 357.18625142 370.94384766 363.28640747 C372.71386739 365.03989254 374.48923134 366.7880002 376.27001953 368.5305481 C395.59378434 387.44305484 409.53772468 405.7909201 410.17895508 433.84133911 C410.11032705 454.15523602 402.20227747 472.6399583 388.05883789 487.10696411 C372.61907179 501.85726839 354.05650492 508.58012804 332.96264648 508.33303833 C321.4466079 507.93187777 311.37527856 505.22330898 300.98461914 500.30227661 C300.39189209 500.02899536 299.79916504 499.75571411 299.18847656 499.47415161 C285.97349197 492.71241614 275.26958214 480.22718569 264.96508789 469.81790161 C263.54603673 468.39255892 262.12645505 466.96774424 260.70637512 465.54342651 C257.00467321 461.82855649 253.30861571 458.10812783 249.61425781 454.38595581 C243.68750707 448.41572512 237.75376055 442.45246693 231.81676674 436.49242401 C229.76049509 434.42603229 227.70772445 432.35621125 225.65531921 430.28598022 C218.62026466 423.13030854 218.62026466 423.13030854 211.19677734 416.38723755 C205.24357955 411.33063405 199.84997845 405.651133 194.34786987 400.11569214 C192.19673577 397.9516662 190.04238125 395.79089183 187.88720703 393.63088989 C182.53794861 388.26833988 177.19417389 382.90033615 171.85021973 377.53250122 C167.32366936 372.98614675 162.79502653 368.44189586 158.26364136 363.90036011 C156.1523599 361.78264756 154.04413906 359.66192113 151.93603516 357.54104614 C150.62816104 356.22953589 149.32014428 354.91816786 148.01196289 353.60696411 C147.43614471 353.02597961 146.86032654 352.44499512 146.26705933 351.84640503 C143.32657468 348.90554673 140.32329377 346.09201674 137.17785645 343.37051392 C133.36880952 340.07417392 129.78559473 336.60720746 126.24047852 333.03079224 C125.59867142 332.38752487 124.95686432 331.74425751 124.29560852 331.08149719 C122.91683799 329.69895189 121.53922263 328.31525375 120.16267395 326.93049622 C117.97793332 324.732867 115.78997488 322.53848627 113.60119629 320.34487915 C108.16846324 314.89885253 102.74121252 309.44737308 97.31378174 303.99606323 C92.71677023 299.37924987 88.11766779 294.76453839 83.51582336 290.15254211 C81.37130405 288.0015903 79.2298443 285.84762489 77.08850098 283.69351196 C75.76040383 282.36177878 74.4321641 281.03018776 73.10375977 279.69876099 C72.22600639 278.81325813 72.22600639 278.81325813 71.33052063 277.90986633 C68.36693314 274.94590789 65.34225487 272.10767789 62.17211914 269.36477661 C58.36478496 266.07055116 54.78370941 262.6053055 51.24047852 259.03079224 C50.59867142 258.38752487 49.95686432 257.74425751 49.29560852 257.08149719 C47.91683799 255.69895189 46.53922263 254.31525375 45.16267395 252.93049622 C42.97793332 250.732867 40.78997488 248.53848627 38.60119629 246.34487915 C33.16846324 240.89885253 27.74121252 235.44737308 22.31378174 229.99606323 C17.71677023 225.37924987 13.11766779 220.76453839 8.51582336 216.15254211 C6.37130405 214.0015903 4.2298443 211.84762489 2.08850098 209.69351196 C0.76040383 208.36177878 -0.5678359 207.03018776 -1.89624023 205.69876099 C-2.48140915 205.10842575 -3.06657806 204.51809052 -3.66947937 203.90986633 C-7.27204655 200.30684821 -11.01529979 196.93228909 -14.86774445 193.59906769 C-17.92430934 190.89467774 -20.79571056 188.02037127 -23.66772461 185.12258911 C-24.29977814 184.48907532 -24.93183167 183.85556152 -25.58303833 183.20285034 C-26.94052832 181.84158628 -28.29686316 180.47916944 -29.65213013 179.11569214 C-31.80326423 176.9516662 -33.95761875 174.79089183 -36.11279297 172.63088989 C-41.46205139 167.26833988 -46.80582611 161.90033615 -52.14978027 156.53250122 C-56.67633064 151.98614675 -61.20497347 147.44189586 -65.73635864 142.90036011 C-67.8476401 140.78264756 -69.95586094 138.66192113 -72.06396484 136.54104614 C-80.46195581 128.10142043 -80.46195581 128.10142043 -89.31738281 120.14819336 C-91.26966035 118.48941221 -93.08752825 116.71888237 -94.89038086 114.89993286 C-95.54135742 114.24573364 -96.19233398 113.59153442 -96.86303711 112.91751099 C-97.51143555 112.26073364 -98.15983398 111.6039563 -98.82788086 110.92727661 C-99.5072168 110.24342896 -100.18655273 109.5595813 -100.88647461 108.85501099 C-102.5359658 107.19390366 -104.18258221 105.53003328 -105.82788086 103.86477661 C-101.64046644 98.87030118 -97.27880896 94.1716949 -92.66430664 89.57180786 C-91.97402374 88.87977264 -91.28374084 88.18773743 -90.57254028 87.47473145 C-88.30858595 85.20640545 -86.04102812 82.94172253 -83.77319336 80.67727661 C-82.18653002 79.08993881 -80.60001509 77.50245267 -79.01364136 75.91482544 C-75.69504334 72.59475673 -72.37465283 69.27649401 -69.05297852 65.95950317 C-64.81085927 61.72307613 -60.57323934 57.48218147 -56.33696175 53.23991394 C-53.06326526 49.96259091 -49.7871746 46.68766946 -46.51037216 43.41345215 C-44.94764837 41.85139207 -43.38565775 40.28859812 -41.82443619 38.72503662 C-39.63546024 36.53350019 -37.44326797 34.34523021 -35.25024414 32.15774536 C-34.61517944 31.52065643 -33.98011475 30.8835675 -33.32580566 30.22717285 C-29.53238229 26.45133867 -25.6213148 22.86760968 -21.56079292 19.38014984 C-19.33446487 17.43330095 -17.28472928 15.35331793 -15.24975586 13.20852661 C-14.48147461 12.41446411 -13.71319336 11.62040161 -12.92163086 10.80227661 C-11.33599525 9.15321558 -9.75805521 7.49672593 -8.18725586 5.83352661 C-7.04256836 4.65790161 -7.04256836 4.65790161 -5.87475586 3.45852661 C-4.85140137 2.38634888 -4.85140137 2.38634888 -3.80737305 1.29251099 C-1.82788086 -0.13522339 -1.82788086 -0.13522339 0 0 Z " fill="#4D4D4D" transform="translate(105.827880859375,401.1352233886719)"/>
<path d="M0 0 C5.41436653 5.10503626 10.62741812 10.41652122 15.86328125 15.703125 C17.34959383 17.19572785 18.83643603 18.68780348 20.32377625 20.17938232 C24.20302441 24.0718066 28.0766322 27.9697896 31.94854736 31.86950684 C38.1595655 38.12398333 44.3775629 44.37150275 50.59880638 50.61580658 C52.75478968 52.78191739 54.90727752 54.95145556 57.05940247 57.12139893 C58.3914525 58.46028233 59.72361522 59.79905366 61.0559082 61.13769531 C61.64257263 61.73109711 62.22923706 62.3244989 62.8336792 62.93588257 C65.79119487 65.90134082 68.80909328 68.73921318 71.97782898 71.4788208 C75.92398214 74.89236975 79.62581595 78.49767975 83.29882812 82.20117188 C83.97964951 82.88345352 84.66047089 83.56573517 85.36192322 84.26869202 C86.82581604 85.7363622 88.28855359 87.20518542 89.75022888 88.67506409 C92.06939513 91.00710692 94.39176959 93.33591268 96.71496582 95.66394043 C102.48159768 101.44387326 108.24275234 107.22925557 114.00408936 113.01446533 C118.8829451 117.91311456 123.76388608 122.80966827 128.64756775 127.70350647 C130.92503874 129.98741518 133.19945406 132.27433646 135.47375488 134.56140137 C136.88274414 135.97402632 138.29187578 137.38650929 139.70117188 138.79882812 C140.32374374 139.42656631 140.94631561 140.0543045 141.5877533 140.70106506 C144.63429149 143.7479631 147.73411445 146.67608715 150.9942627 149.4942627 C154.96820497 152.9301688 158.69230061 156.56440849 162.390625 160.29296875 C163.08119995 160.98500397 163.7717749 161.67703918 164.48327637 162.39004517 C165.96844978 163.87899654 167.45246792 165.36910102 168.9354248 166.86026001 C171.28819735 169.22590636 173.64417588 171.58831828 176.00097656 173.94995117 C181.8510832 179.8133605 187.69571383 185.68221852 193.54052734 191.55090332 C198.48984407 196.52001159 203.44124471 201.48702582 208.39538574 206.45132446 C210.70609471 208.76847237 213.01374891 211.08863259 215.32128906 213.40893555 C216.75050135 214.84178344 218.17985596 216.2744894 219.609375 217.70703125 C220.55725891 218.66266464 220.55725891 218.66266464 221.52429199 219.63760376 C225.22977386 223.34351722 229.06400215 226.82723985 233.02799988 230.25384521 C236.24913587 233.1060773 239.2701228 236.14733329 242.29882812 239.20117188 C242.97964951 239.88345352 243.66047089 240.56573517 244.36192322 241.26869202 C245.82581604 242.7363622 247.28855359 244.20518542 248.75022888 245.67506409 C251.06939513 248.00710692 253.39176959 250.33591268 255.71496582 252.66394043 C261.48159768 258.44387326 267.24275234 264.22925557 273.00408936 270.01446533 C277.8829451 274.91311456 282.76388608 279.80966827 287.64756775 284.70350647 C289.92503874 286.98741518 292.19945406 289.27433646 294.47375488 291.56140137 C295.88274414 292.97402632 297.29187578 294.38650929 298.70117188 295.79882812 C299.32374374 296.42656631 299.94631561 297.0543045 300.5877533 297.70106506 C304.2702164 301.38396312 308.08347696 304.84368544 312.02254486 308.24936867 C315.25517658 311.11120167 318.29082206 314.15981314 321.33398438 317.22045898 C322.01790253 317.90423111 322.70182068 318.58800323 323.40646362 319.29249573 C325.63794131 321.52466303 327.86586859 323.76033758 330.09375 325.99609375 C331.65151412 327.55572544 333.20950102 329.11513464 334.7677002 330.67433167 C338.84690815 334.75733812 342.92310269 338.8433399 346.99865723 342.92999268 C351.16654461 347.1081518 355.33730224 351.28344362 359.5078125 355.45898438 C367.67467186 363.63653396 375.83834763 371.81725377 384 380 C382.62850763 383.07486553 381.06548894 385.18314469 378.68701172 387.5559082 C377.67488113 388.57265373 377.67488113 388.57265373 376.64230347 389.60993958 C375.54705856 390.6944062 375.54705856 390.6944062 374.4296875 391.80078125 C373.67462921 392.55538132 372.91957092 393.30998138 372.14163208 394.08744812 C370.54177249 395.68428739 368.93948395 397.27869627 367.33496094 398.87084961 C364.89988651 401.28779873 362.47277849 403.71252165 360.046875 406.13867188 C358.4874476 407.69317839 356.92756589 409.24722932 355.3671875 410.80078125 C354.64916962 411.51768631 353.93115173 412.23459137 353.19137573 412.97322083 C349.92825394 416.20633075 346.6386732 419.35221071 343.15087891 422.3425293 C338.43925433 426.41196063 334.07589976 430.81091732 329.69447327 435.23036194 C328.18187668 436.75593977 326.66598798 438.27818086 325.14929199 439.79968262 C321.93000888 443.03028953 318.71469888 446.26483223 315.5 449.5 C311.7692435 453.25451127 308.03679249 457.00730613 304.30006409 460.75587463 C302.82029444 462.24203689 301.34361435 463.73121996 299.86706543 465.22058105 C295.2498465 469.85447672 290.59693762 474.36564849 285.6151123 478.60754395 C283.64183675 480.30878756 281.80383749 482.12100261 280 484 C276.24689118 482.44234073 273.90582087 480.1220056 271.078125 477.23828125 C270.61444519 476.76939987 270.15076538 476.30051849 269.67303467 475.81742859 C268.19382975 474.32048402 266.72147299 472.81704251 265.25 471.3125 C263.79202939 469.82662216 262.33252184 468.34234309 260.86981201 466.86112976 C259.53123319 465.50491833 258.19758899 464.14384157 256.86425781 462.7824707 C254.75854014 460.7368805 252.65579115 458.82820692 250.42871094 456.92651367 C245.16805749 452.36454438 240.3001988 447.41205554 235.39810181 442.4732666 C233.65025078 440.712475 231.89914028 438.95498136 230.1472168 437.19824219 C225.7996505 432.8374141 221.45758852 428.47111887 217.11535645 424.10498047 C213.4343432 420.40412928 209.75121443 416.70540744 206.06533813 413.00939941 C204.3529083 411.29055956 202.64355488 409.56870188 200.93432617 407.84667969 C196.12450835 403.01447956 191.28138904 398.30197597 186.09521484 393.87036133 C181.74708432 389.98886192 177.68783016 385.79433223 173.58329773 381.65846252 C171.86905414 379.93127324 170.15154698 378.2073868 168.43322754 376.48425293 C164.16913523 372.20690193 159.91054939 367.92408241 155.65179443 363.64141846 C152.04124298 360.01102552 148.42857358 356.38276463 144.81315613 352.75721741 C143.13396365 351.0716171 141.45784924 349.38299859 139.78186035 347.69421387 C133.56097859 341.4311992 133.56097859 341.4311992 127.01367188 335.51367188 C121.87063875 331.11646624 117.16140519 326.27222306 112.39810181 321.4732666 C110.65025078 319.712475 108.89914028 317.95498136 107.1472168 316.19824219 C102.7996505 311.8374141 98.45758852 307.47111887 94.11535645 303.10498047 C90.4343432 299.40412928 86.75121443 295.70540744 83.06533813 292.00939941 C81.3529083 290.29055956 79.64355488 288.56870188 77.93432617 286.84667969 C73.12450835 282.01447956 68.28138904 277.30197597 63.09521484 272.87036133 C58.74708432 268.98886192 54.68783016 264.79433223 50.58329773 260.65846252 C48.86905414 258.93127324 47.15154698 257.2073868 45.43322754 255.48425293 C41.16913523 251.20690193 36.91054939 246.92408241 32.65179443 242.64141846 C29.04124298 239.01102552 25.42857358 235.38276463 21.81315613 231.75721741 C20.13396365 230.0716171 18.45784924 228.38299859 16.78186035 226.69421387 C10.56097859 220.4311992 10.56097859 220.4311992 4.01367188 214.51367188 C-1.12936125 210.11646624 -5.83859481 205.27222306 -10.60189819 200.4732666 C-12.34974922 198.712475 -14.10085972 196.95498136 -15.8527832 195.19824219 C-20.2003495 190.8374141 -24.54241148 186.47111887 -28.88464355 182.10498047 C-32.5656568 178.40412928 -36.24878557 174.70540744 -39.93466187 171.00939941 C-41.6470917 169.29055956 -43.35644512 167.56870188 -45.06567383 165.84667969 C-49.87238511 161.01742152 -54.70866156 156.29751967 -59.89135742 151.86819458 C-68.70511181 144.05947045 -76.88465096 135.46669767 -85.23535156 127.16967773 C-87.73705222 124.68576399 -90.24698066 122.2106463 -92.76464844 119.74291992 C-95.83497774 116.73337303 -98.88976878 113.70881247 -101.93466187 110.67354012 C-103.08394219 109.53271251 -104.23827021 108.39694272 -105.39810181 107.2668438 C-115.26442647 97.64004289 -122.81590752 87.37684106 -126.9375 74 C-127.31777344 72.80375 -127.69804687 71.6075 -128.08984375 70.375 C-133.33778701 50.91481555 -129.88622597 30.20956788 -120.265625 12.73046875 C-110.21538989 -4.39981376 -93.71848811 -16.20277059 -74.7265625 -21.65234375 C-46.05200384 -28.54429908 -21.14232454 -19.08896307 0 0 Z " fill="#4D4D4D" transform="translate(629,462)"/>
<path d="M0 0 C1.41720481 1.18319511 2.81305962 2.39238742 4.1875 3.625 C4.94675781 4.30304687 5.70601562 4.98109375 6.48828125 5.6796875 C19.51660313 17.98543018 28.06210462 35.65277686 29.1875 53.625 C29.26677734 54.78322266 29.26677734 54.78322266 29.34765625 55.96484375 C30.07343582 76.94934005 22.65947924 95.94855034 8.63386536 111.44674683 C5.78048566 114.39259871 2.88705488 117.29070158 -0.03125 120.171875 C-1.09983115 121.23738672 -2.16781215 122.30350062 -3.23522949 123.37017822 C-5.45614789 125.58653472 -7.68182577 127.7979461 -9.91162109 130.00537109 C-12.74916312 132.81456524 -15.57789706 135.63242284 -18.40352631 138.45359421 C-21.13046302 141.17534366 -23.8620364 143.89242152 -26.59375 146.609375 C-27.10288437 147.11662865 -27.61201874 147.62388229 -28.13658142 148.14650726 C-37.19371918 157.16040902 -37.19371918 157.16040902 -41.63476562 160.93847656 C-47.35494257 165.85172915 -52.58470433 171.28768011 -57.89596558 176.63330078 C-59.91267306 178.66291415 -61.93261221 180.68926258 -63.95336914 182.71484375 C-68.24257795 187.01541234 -72.52783475 191.31990526 -76.8125 195.625 C-81.78237582 200.61857243 -86.7539103 205.61047009 -91.72970581 210.59814453 C-93.70803614 212.58289986 -95.68330129 214.57067023 -97.65844727 216.55859375 C-102.85968613 221.78081322 -108.04197571 226.91663749 -113.65795898 231.6953125 C-118.60474956 236.12584312 -123.21683165 240.92389676 -127.89596558 245.63330078 C-129.91267306 247.66291415 -131.93261221 249.68926258 -133.95336914 251.71484375 C-138.24257795 256.01541234 -142.52783475 260.31990526 -146.8125 264.625 C-151.78237582 269.61857243 -156.7539103 274.61047009 -161.72970581 279.59814453 C-163.70803614 281.58289986 -165.68330129 283.57067023 -167.65844727 285.55859375 C-173.5386685 291.46357469 -179.41542221 297.27414692 -185.8125 302.625 C-191.65322124 307.57481379 -197.41435989 312.58610965 -203.03000164 317.79150772 C-205.47853913 320.05536874 -207.9465819 322.24959004 -210.50317383 324.39404297 C-224.62763184 336.30137714 -230.57901311 346.50957063 -232.25 364.91015625 C-232.64077841 369.65399832 -232.95297934 374.40057081 -233.21829987 379.153018 C-233.8717188 390.74576569 -235.21164023 402.25249503 -236.50811195 413.78778458 C-237.20423564 420.04649848 -237.85990096 426.30941492 -238.51757812 432.57226562 C-238.78384128 435.09742205 -239.0501991 437.6225685 -239.31665039 440.14770508 C-239.44928284 441.40578979 -239.58191528 442.66387451 -239.71856689 443.96008301 C-240.40773617 450.49244314 -241.09950509 457.024528 -241.79101562 463.55664062 C-243.13396737 476.24583476 -244.47426777 488.93530731 -245.8125 501.625 C-249.82007755 499.77482428 -252.57444296 497.13545621 -255.64453125 494.0234375 C-256.19936691 493.46814362 -256.75420258 492.91284973 -257.32585144 492.34072876 C-258.49898789 491.16457558 -259.66969729 489.98599724 -260.83813477 488.80517578 C-262.60325734 487.02196546 -264.37608023 485.24671976 -266.15039062 483.47265625 C-267.29474026 482.32338389 -268.43863459 481.17365797 -269.58203125 480.0234375 C-270.1020723 479.50228363 -270.62211334 478.98112976 -271.15791321 478.44418335 C-273.8813021 475.68653136 -276.48354006 472.87040654 -279.00463867 469.92626953 C-283.24307807 465.03938274 -287.82299344 460.50155881 -292.41325378 455.94908142 C-294.00603491 454.36926867 -295.59549157 452.78617414 -297.1842041 451.20227051 C-300.55747313 447.84033139 -303.93467602 444.48236181 -307.3125 441.125 C-311.23221835 437.22902651 -315.15022742 433.33136462 -319.06401062 429.4294281 C-320.61665238 427.88318445 -322.17231403 426.3400262 -323.72814941 424.79699707 C-328.40352989 420.14515868 -332.91874593 415.43078019 -337.20983887 410.42126465 C-339.91263949 407.39196225 -342.90628667 404.69851641 -345.90625 401.96875 C-352.51286601 395.86277171 -358.93166591 389.59124024 -365.28125 383.21875 C-366.18101562 382.31576172 -367.08078125 381.41277344 -368.0078125 380.48242188 C-370.7779544 377.69850796 -373.54565807 374.91219348 -376.3125 372.125 C-380.0072705 368.40311133 -383.70583862 364.68503065 -387.40625 360.96875 C-388.23346558 360.13323608 -389.06068115 359.29772217 -389.91296387 358.43688965 C-394.170366 354.16165501 -398.50562407 350.06312113 -403.08068848 346.12973022 C-405.24839231 344.24626344 -407.29020547 342.26074996 -409.3125 340.22265625 C-410.05371094 339.47822266 -410.79492188 338.73378906 -411.55859375 337.96679688 C-412.30238281 337.21462891 -413.04617188 336.46246094 -413.8125 335.6875 C-414.97458984 334.51864258 -414.97458984 334.51864258 -416.16015625 333.32617188 C-418.04660757 331.4280758 -419.93066245 329.52766851 -421.8125 327.625 C-420.19718385 324.2053033 -418.39998974 321.97300823 -415.6875 319.3125 C-414.60082031 318.23548828 -414.60082031 318.23548828 -413.4921875 317.13671875 C-411.42349421 315.19769574 -409.33153601 313.34326005 -407.18151855 311.49841309 C-402.67383101 307.56069169 -398.44496459 303.38403132 -394.22851562 299.13867188 C-393.00245857 297.91042442 -393.00245857 297.91042442 -391.75163269 296.65736389 C-389.98981081 294.89175753 -388.22914438 293.12499758 -386.4695282 291.35719299 C-383.67987866 288.55469969 -380.88711348 285.75533332 -378.09338379 282.95690918 C-372.16343505 277.01591614 -366.2377396 271.07068914 -360.3125 265.125 C-353.91302346 258.7034372 -347.51279234 252.28263707 -341.10764647 245.86672831 C-337.89334063 242.64668528 -334.68296494 239.42275484 -331.4732666 236.19812012 C-329.78115509 234.50237386 -328.08890177 232.80676909 -326.39648438 231.11132812 C-325.64300217 230.3526796 -324.88951996 229.59403107 -324.11320496 228.81239319 C-320.14252946 224.841326 -316.0728175 221.07416525 -311.82094574 217.4076004 C-308.13876651 214.13947418 -304.69675522 210.63069177 -301.22851562 207.13867188 C-300.41114426 206.31984024 -299.59377289 205.50100861 -298.75163269 204.65736389 C-296.98981081 202.89175753 -295.22914438 201.12499758 -293.4695282 199.35719299 C-290.67987866 196.55469969 -287.88711348 193.75533332 -285.09338379 190.95690918 C-279.16343505 185.01591614 -273.2377396 179.07068914 -267.3125 173.125 C-260.91302346 166.7034372 -254.51279234 160.28263707 -248.10764647 153.86672831 C-244.89334063 150.64668528 -241.68296494 147.42275484 -238.4732666 144.19812012 C-236.78115509 142.50237386 -235.08890177 140.80676909 -233.39648438 139.11132812 C-232.64300217 138.3526796 -231.88951996 137.59403107 -231.11320496 136.81239319 C-227.14252946 132.841326 -223.0728175 129.07416525 -218.82094574 125.4076004 C-215.13876651 122.13947418 -211.69675522 118.63069177 -208.22851562 115.13867188 C-207.41114426 114.31984024 -206.59377289 113.50100861 -205.75163269 112.65736389 C-203.98981081 110.89175753 -202.22914438 109.12499758 -200.4695282 107.35719299 C-197.67987866 104.55469969 -194.88711348 101.75533332 -192.09338379 98.95690918 C-186.16343505 93.01591614 -180.2377396 87.07068914 -174.3125 81.125 C-167.91302346 74.7034372 -161.51279234 68.28263707 -155.10764647 61.86672831 C-151.89334063 58.64668528 -148.68296494 55.42275484 -145.4732666 52.19812012 C-143.78115509 50.50237386 -142.08890177 48.80676909 -140.39648438 47.11132812 C-139.26626106 45.97335533 -139.26626106 45.97335533 -138.11320496 44.81239319 C-134.07183728 40.77062685 -129.94450119 36.9017162 -125.59665108 33.19049644 C-122.5541146 30.52083461 -119.76964058 27.60655734 -116.9609375 24.6953125 C-115.6842158 23.39131776 -114.40685121 22.0879522 -113.12890625 20.78515625 C-111.16173911 18.77504426 -109.19866815 16.76158397 -107.24658203 14.73681641 C-96.72236167 3.83986879 -85.97239545 -5.98836818 -71.3125 -10.875 C-70.6628125 -11.1121875 -70.013125 -11.349375 -69.34375 -11.59375 C-46.40068718 -19.73483681 -19.21477513 -14.37772236 0 0 Z " fill="#80ED99" transform="translate(586.8125,14.375)"/>
<path d="M0 0 C7.15296278 5.83657784 13.55467053 12.42913236 20.06030273 18.96264648 C21.37816414 20.28242924 22.69625502 21.60198289 24.01455688 22.92132568 C26.84348958 25.75340941 29.67086344 28.5870369 32.49703789 31.42187309 C36.97069145 35.9090961 41.44819871 40.39246048 45.92628479 44.8752594 C56.24046971 55.20146771 66.5496343 65.53268333 76.85874939 75.86395264 C86.30794392 85.3333524 95.75820692 94.80167929 105.21253544 104.2659536 C109.65912339 108.71750861 114.10326492 113.17148702 118.54551876 117.6273669 C121.31509536 120.40443098 124.08676748 123.17939645 126.85899734 125.95381165 C128.13851735 127.23519519 129.41717692 128.51743863 130.69488335 129.80063057 C139.27972825 138.44355673 139.27972825 138.44355673 148.34710789 146.57351112 C151.58181782 149.36514992 154.55501643 152.43298431 157.5625 155.46484375 C158.57763672 156.48210289 158.57763672 156.48210289 159.61328125 157.51991272 C161.74457675 159.65674305 163.87234218 161.79704823 166 163.9375 C167.45679779 165.39932123 168.91382701 166.86091187 170.37109375 168.32226562 C173.91673973 171.878854 177.45922739 175.43856016 181 179 C179.49982816 182.64479136 177.42048749 184.62556613 174.45166016 187.17724609 C169.35398554 191.65432033 164.54386963 196.34264081 159.7734375 201.1640625 C158.94091461 202.00037201 158.10839172 202.83668152 157.25064087 203.69833374 C154.62294901 206.33810567 151.99855768 208.98111967 149.375 211.625 C145.906609 215.12014935 142.43480549 218.61185768 138.9609375 222.1015625 C138.18052094 222.8902774 137.40010437 223.67899231 136.59603882 224.49160767 C133.16151703 227.94129801 129.70879367 231.3062925 126.01806641 234.48193359 C121.36390716 238.48920152 117.06860584 242.82457208 112.75 247.1875 C111.89245117 248.04883545 111.03490234 248.9101709 110.15136719 249.79760742 C107.43179111 252.5293112 104.715488 255.26423275 102 258 C98.41961974 261.60711851 94.83584819 265.21081802 91.25 268.8125 C90.44143555 269.62936279 89.63287109 270.44622559 88.79980469 271.2878418 C84.67183907 275.43341525 80.46183107 279.38171569 76.02832031 283.1965332 C72.10189436 286.68768733 68.44481222 290.45476773 64.75 294.1875 C63.89245117 295.04883545 63.03490234 295.9101709 62.15136719 296.79760742 C59.43179111 299.5293112 56.715488 302.26423275 54 305 C50.41961974 308.60711851 46.83584819 312.21081802 43.25 315.8125 C42.44143555 316.62936279 41.63287109 317.44622559 40.79980469 318.2878418 C36.66750515 322.43776767 32.4531489 326.39113679 28.01489258 330.20996094 C24.16859626 333.6270268 20.58630781 337.31303269 16.96875 340.96875 C16.13339722 341.8078894 15.29804443 342.64702881 14.43737793 343.51159668 C11.78912914 346.171969 9.14415594 348.83556013 6.5 351.5 C3.01337399 355.01337273 -0.47664926 358.52331971 -3.96875 362.03125 C-4.75544067 362.82623901 -5.54213135 363.62122803 -6.35266113 364.44030762 C-9.80571176 367.90847813 -13.27573969 371.29361377 -16.98632812 374.48632812 C-21.63922965 378.49188442 -25.93285374 382.82604664 -30.25 387.1875 C-31.10754883 388.04883545 -31.96509766 388.9101709 -32.84863281 389.79760742 C-35.56820889 392.5293112 -38.284512 395.26423275 -41 398 C-44.58038026 401.60711851 -48.16415181 405.21081802 -51.75 408.8125 C-52.55856445 409.62936279 -53.36712891 410.44622559 -54.20019531 411.2878418 C-58.32816093 415.43341525 -62.53816893 419.38171569 -66.97167969 423.1965332 C-70.89810564 426.68768733 -74.55518778 430.45476773 -78.25 434.1875 C-79.10754883 435.04883545 -79.96509766 435.9101709 -80.84863281 436.79760742 C-83.56820889 439.5293112 -86.284512 442.26423275 -89 445 C-92.58038026 448.60711851 -96.16415181 452.21081802 -99.75 455.8125 C-100.55856445 456.62936279 -101.36712891 457.44622559 -102.20019531 458.2878418 C-106.43232386 462.5380225 -110.73531221 466.62363104 -115.30168152 470.51403809 C-117.79466649 472.69530194 -120.0379176 475.09453184 -122.3125 477.5 C-127.33911097 482.65747085 -132.72751124 486.48740629 -139 490 C-139.65226563 490.38671875 -140.30453125 490.7734375 -140.9765625 491.171875 C-157.99771787 500.58783329 -178.63729128 500.96451083 -197 496 C-201.16024751 494.60985609 -205.06574706 492.93522712 -209 491 C-209.97453125 490.53078125 -210.9490625 490.0615625 -211.953125 489.578125 C-228.87413467 480.63036596 -241.15342617 464.40454274 -246.8605957 446.26464844 C-248.78830761 438.98398758 -249.51257848 432.20825205 -249.4375 424.6875 C-249.42847656 423.59518066 -249.41945313 422.50286133 -249.41015625 421.37744141 C-248.919127 398.36385502 -238.28249793 380.93235623 -222.21484375 365.046875 C-220.28136339 363.26002543 -218.31105794 361.54105015 -216.31665039 359.82324219 C-212.28270647 356.29733165 -208.48029105 352.59382019 -204.71875 348.78125 C-204.06096558 348.11967896 -203.40318115 347.45810791 -202.72546387 346.77648926 C-200.64782726 344.68677265 -198.57349373 342.59382685 -196.5 340.5 C-193.7634185 337.736583 -191.02337737 334.97666278 -188.28125 332.21875 C-187.66954956 331.59875122 -187.05784912 330.97875244 -186.4276123 330.33996582 C-182.74020602 326.63206145 -178.91948929 323.15657097 -174.96325684 319.73840332 C-171.82170789 316.95665871 -168.88275731 313.98669448 -165.9375 311 C-165.30191162 310.360625 -164.66632324 309.72125 -164.01147461 309.0625 C-162.0051635 307.04411603 -160.00215999 305.02250124 -158 303 C-155.35717585 300.33032568 -152.71088176 297.66415992 -150.0625 295 C-149.47267334 294.401875 -148.88284668 293.80375 -148.27514648 293.1875 C-145.28037622 290.17550151 -142.22820595 287.29101535 -139.01367188 284.51367188 C-135.06831212 281.10325202 -131.3801022 277.49227218 -127.71875 273.78125 C-127.06096558 273.11967896 -126.40318115 272.45810791 -125.72546387 271.77648926 C-123.64782726 269.68677265 -121.57349373 267.59382685 -119.5 265.5 C-116.7634185 262.736583 -114.02337737 259.97666278 -111.28125 257.21875 C-110.66954956 256.59875122 -110.05784912 255.97875244 -109.4276123 255.33996582 C-105.74454361 251.63642315 -101.92819506 248.16598379 -97.97668457 244.75183105 C-94.75471528 241.89636997 -91.74134128 238.84484581 -88.71875 235.78125 C-88.06096558 235.11967896 -87.40318115 234.45810791 -86.72546387 233.77648926 C-84.64782726 231.68677265 -82.57349373 229.59382685 -80.5 227.5 C-77.7634185 224.736583 -75.02337737 221.97666278 -72.28125 219.21875 C-71.36369934 218.28875183 -71.36369934 218.28875183 -70.4276123 217.33996582 C-66.74020602 213.63206145 -62.91948929 210.15657097 -58.96325684 206.73840332 C-55.82170789 203.95665871 -52.88275731 200.98669448 -49.9375 198 C-49.30191162 197.360625 -48.66632324 196.72125 -48.01147461 196.0625 C-46.0051635 194.04411603 -44.00215999 192.02250124 -42 190 C-39.35717585 187.33032568 -36.71088176 184.66415992 -34.0625 182 C-33.17776001 181.1028125 -33.17776001 181.1028125 -32.27514648 180.1875 C-26.65115638 174.53115637 -20.80003899 169.29555719 -14.35073853 164.5942688 C-6.55338321 158.4836517 -0.94770963 152.66567252 0.61651611 142.59564209 C1.45216901 134.38825346 1.23462846 126.11961726 1.02701998 117.88554525 C0.94163541 113.72972213 0.96005212 109.5742665 0.96664429 105.41775513 C0.96372403 97.57556111 0.86980184 89.73730839 0.74172533 81.89626801 C0.60026314 72.95785825 0.56244743 64.0199021 0.53258252 55.08053184 C0.46895512 36.71855147 0.2776204 18.35993101 0 0 Z " fill="#80ED99" transform="translate(665,828)"/>
</svg>
